G75*
%MOIN*%
%OFA0B0*%
%FSLAX25Y25*%
%IPPOS*%
%LPD*%
%AMOC8*
5,1,8,0,0,1.08239X$1,22.5*
%
%ADD10C,0.17800*%
%ADD11C,0.08300*%
%ADD12C,0.05950*%
%ADD13C,0.08200*%
%ADD14C,0.09068*%
%ADD15C,0.07800*%
%ADD16C,0.23800*%
%ADD17C,0.06343*%
%ADD18C,0.03581*%
%ADD19C,0.04369*%
%ADD20C,0.03975*%
D10*
X0267122Y0035315D03*
X0285626Y0047126D03*
X0267122Y0058937D03*
D11*
X0222122Y0095000D03*
X0222122Y0105000D03*
X0222122Y0115000D03*
X0222122Y0125000D03*
X0222122Y0135000D03*
X0222122Y0145000D03*
X0222122Y0155000D03*
X0222122Y0165000D03*
X0222122Y0175000D03*
X0222122Y0185000D03*
X0222122Y0195000D03*
X0222122Y0205000D03*
X0152122Y0205000D03*
X0152122Y0195000D03*
X0152122Y0185000D03*
X0152122Y0175000D03*
X0152122Y0165000D03*
X0152122Y0155000D03*
X0152122Y0145000D03*
X0152122Y0135000D03*
X0152122Y0125000D03*
X0152122Y0115000D03*
X0152122Y0105000D03*
X0152122Y0095000D03*
D12*
X0094622Y0167657D03*
X0094622Y0187343D03*
D13*
X0117122Y0225000D03*
X0117122Y0235000D03*
X0117122Y0245000D03*
X0117122Y0255000D03*
X0057122Y0255000D03*
X0057122Y0245000D03*
X0057122Y0235000D03*
X0057122Y0225000D03*
X0234622Y0045000D03*
X0234622Y0035000D03*
X0202122Y0040000D03*
X0192122Y0040000D03*
X0182122Y0040000D03*
X0172122Y0040000D03*
X0297122Y0170000D03*
X0297122Y0180000D03*
X0297122Y0190000D03*
X0257122Y0225000D03*
X0257122Y0235000D03*
X0257122Y0245000D03*
X0257122Y0255000D03*
D14*
X0119917Y0040000D03*
X0094326Y0040000D03*
D15*
X0157122Y0235000D03*
X0167122Y0235000D03*
X0177122Y0235000D03*
X0187122Y0235000D03*
X0197122Y0235000D03*
X0207122Y0235000D03*
X0217122Y0235000D03*
D16*
X0061137Y0039016D03*
X0313106Y0039016D03*
X0313106Y0290984D03*
X0061137Y0290984D03*
D17*
X0142200Y0042772D02*
X0142200Y0037228D01*
X0152043Y0037228D02*
X0152043Y0042772D01*
D18*
X0097122Y0055000D03*
X0179622Y0140000D03*
X0194622Y0140000D03*
X0209622Y0140000D03*
X0254622Y0160000D03*
X0277122Y0170000D03*
X0254622Y0200000D03*
X0202122Y0252500D03*
X0194622Y0272500D03*
X0097122Y0252500D03*
X0054622Y0202500D03*
X0054622Y0180000D03*
D19*
X0247122Y0132500D03*
D20*
X0248372Y0122500D03*
X0245872Y0113750D03*
X0222122Y0075000D03*
X0222122Y0061250D03*
X0204622Y0057500D03*
X0162122Y0057500D03*
X0162122Y0040000D03*
X0142122Y0085000D03*
X0133372Y0093750D03*
X0133372Y0146250D03*
X0137122Y0153750D03*
X0122122Y0146250D03*
X0127122Y0185990D03*
X0107122Y0190000D03*
X0107122Y0206250D03*
X0127122Y0220000D03*
X0132122Y0215000D03*
X0137122Y0215000D03*
X0132122Y0245000D03*
X0137122Y0250000D03*
X0157122Y0255000D03*
X0117122Y0270000D03*
X0112122Y0280000D03*
X0203372Y0217500D03*
X0207122Y0220000D03*
X0207122Y0203750D03*
X0214622Y0202500D03*
X0242122Y0186250D03*
X0248372Y0192500D03*
X0287122Y0185000D03*
X0297122Y0200000D03*
X0312122Y0200000D03*
X0282122Y0155000D03*
M02*
