G75*
%MOIN*%
%OFA0B0*%
%FSLAX25Y25*%
%IPPOS*%
%LPD*%
%AMOC8*
5,1,8,0,0,1.08239X$1,22.5*
%
%ADD10C,0.00000*%
D10*
X0037515Y0015394D02*
X0037515Y0314606D01*
X0336728Y0314606D01*
X0336728Y0133937D01*
X0336726Y0133813D01*
X0336720Y0133690D01*
X0336711Y0133566D01*
X0336697Y0133444D01*
X0336680Y0133321D01*
X0336658Y0133199D01*
X0336633Y0133078D01*
X0336604Y0132958D01*
X0336572Y0132839D01*
X0336535Y0132720D01*
X0336495Y0132603D01*
X0336452Y0132488D01*
X0336404Y0132373D01*
X0336353Y0132261D01*
X0336299Y0132150D01*
X0336241Y0132040D01*
X0336180Y0131933D01*
X0336115Y0131827D01*
X0336047Y0131724D01*
X0335976Y0131623D01*
X0335902Y0131524D01*
X0335825Y0131427D01*
X0335744Y0131333D01*
X0335661Y0131242D01*
X0335575Y0131153D01*
X0335486Y0131067D01*
X0335395Y0130984D01*
X0335301Y0130903D01*
X0335204Y0130826D01*
X0335105Y0130752D01*
X0335004Y0130681D01*
X0334901Y0130613D01*
X0334795Y0130548D01*
X0334688Y0130487D01*
X0334578Y0130429D01*
X0334467Y0130375D01*
X0334355Y0130324D01*
X0334240Y0130276D01*
X0334125Y0130233D01*
X0334008Y0130193D01*
X0333889Y0130156D01*
X0333770Y0130124D01*
X0333650Y0130095D01*
X0333529Y0130070D01*
X0333407Y0130048D01*
X0333284Y0130031D01*
X0333162Y0130017D01*
X0333038Y0130008D01*
X0332915Y0130002D01*
X0332791Y0130000D01*
X0322122Y0130000D01*
X0321880Y0129997D01*
X0321639Y0129988D01*
X0321398Y0129974D01*
X0321157Y0129953D01*
X0320917Y0129927D01*
X0320677Y0129895D01*
X0320438Y0129857D01*
X0320201Y0129814D01*
X0319964Y0129764D01*
X0319729Y0129709D01*
X0319495Y0129649D01*
X0319263Y0129582D01*
X0319032Y0129511D01*
X0318803Y0129433D01*
X0318576Y0129350D01*
X0318351Y0129262D01*
X0318128Y0129168D01*
X0317908Y0129069D01*
X0317690Y0128964D01*
X0317475Y0128855D01*
X0317262Y0128740D01*
X0317052Y0128620D01*
X0316846Y0128495D01*
X0316642Y0128365D01*
X0316441Y0128230D01*
X0316244Y0128090D01*
X0316050Y0127946D01*
X0315860Y0127797D01*
X0315674Y0127643D01*
X0315491Y0127485D01*
X0315312Y0127323D01*
X0315137Y0127156D01*
X0314966Y0126985D01*
X0314799Y0126810D01*
X0314637Y0126631D01*
X0314479Y0126448D01*
X0314325Y0126262D01*
X0314176Y0126072D01*
X0314032Y0125878D01*
X0313892Y0125681D01*
X0313757Y0125480D01*
X0313627Y0125276D01*
X0313502Y0125070D01*
X0313382Y0124860D01*
X0313267Y0124647D01*
X0313158Y0124432D01*
X0313053Y0124214D01*
X0312954Y0123994D01*
X0312860Y0123771D01*
X0312772Y0123546D01*
X0312689Y0123319D01*
X0312611Y0123090D01*
X0312540Y0122859D01*
X0312473Y0122627D01*
X0312413Y0122393D01*
X0312358Y0122158D01*
X0312308Y0121921D01*
X0312265Y0121684D01*
X0312227Y0121445D01*
X0312195Y0121205D01*
X0312169Y0120965D01*
X0312148Y0120724D01*
X0312134Y0120483D01*
X0312125Y0120242D01*
X0312122Y0120000D01*
X0312122Y0100000D01*
X0312125Y0099758D01*
X0312134Y0099517D01*
X0312148Y0099276D01*
X0312169Y0099035D01*
X0312195Y0098795D01*
X0312227Y0098555D01*
X0312265Y0098316D01*
X0312308Y0098079D01*
X0312358Y0097842D01*
X0312413Y0097607D01*
X0312473Y0097373D01*
X0312540Y0097141D01*
X0312611Y0096910D01*
X0312689Y0096681D01*
X0312772Y0096454D01*
X0312860Y0096229D01*
X0312954Y0096006D01*
X0313053Y0095786D01*
X0313158Y0095568D01*
X0313267Y0095353D01*
X0313382Y0095140D01*
X0313502Y0094930D01*
X0313627Y0094724D01*
X0313757Y0094520D01*
X0313892Y0094319D01*
X0314032Y0094122D01*
X0314176Y0093928D01*
X0314325Y0093738D01*
X0314479Y0093552D01*
X0314637Y0093369D01*
X0314799Y0093190D01*
X0314966Y0093015D01*
X0315137Y0092844D01*
X0315312Y0092677D01*
X0315491Y0092515D01*
X0315674Y0092357D01*
X0315860Y0092203D01*
X0316050Y0092054D01*
X0316244Y0091910D01*
X0316441Y0091770D01*
X0316642Y0091635D01*
X0316846Y0091505D01*
X0317052Y0091380D01*
X0317262Y0091260D01*
X0317475Y0091145D01*
X0317690Y0091036D01*
X0317908Y0090931D01*
X0318128Y0090832D01*
X0318351Y0090738D01*
X0318576Y0090650D01*
X0318803Y0090567D01*
X0319032Y0090489D01*
X0319263Y0090418D01*
X0319495Y0090351D01*
X0319729Y0090291D01*
X0319964Y0090236D01*
X0320201Y0090186D01*
X0320438Y0090143D01*
X0320677Y0090105D01*
X0320917Y0090073D01*
X0321157Y0090047D01*
X0321398Y0090026D01*
X0321639Y0090012D01*
X0321880Y0090003D01*
X0322122Y0090000D01*
X0332791Y0090000D01*
X0332915Y0089998D01*
X0333038Y0089992D01*
X0333162Y0089983D01*
X0333284Y0089969D01*
X0333407Y0089952D01*
X0333529Y0089930D01*
X0333650Y0089905D01*
X0333770Y0089876D01*
X0333889Y0089844D01*
X0334008Y0089807D01*
X0334125Y0089767D01*
X0334240Y0089724D01*
X0334355Y0089676D01*
X0334467Y0089625D01*
X0334578Y0089571D01*
X0334688Y0089513D01*
X0334795Y0089452D01*
X0334901Y0089387D01*
X0335004Y0089319D01*
X0335105Y0089248D01*
X0335204Y0089174D01*
X0335301Y0089097D01*
X0335395Y0089016D01*
X0335486Y0088933D01*
X0335575Y0088847D01*
X0335661Y0088758D01*
X0335744Y0088667D01*
X0335825Y0088573D01*
X0335902Y0088476D01*
X0335976Y0088377D01*
X0336047Y0088276D01*
X0336115Y0088173D01*
X0336180Y0088067D01*
X0336241Y0087960D01*
X0336299Y0087850D01*
X0336353Y0087739D01*
X0336404Y0087627D01*
X0336452Y0087512D01*
X0336495Y0087397D01*
X0336535Y0087280D01*
X0336572Y0087161D01*
X0336604Y0087042D01*
X0336633Y0086922D01*
X0336658Y0086801D01*
X0336680Y0086679D01*
X0336697Y0086556D01*
X0336711Y0086434D01*
X0336720Y0086310D01*
X0336726Y0086187D01*
X0336728Y0086063D01*
X0336728Y0015394D01*
X0037515Y0015394D01*
M02*
